PathFileType  4	(X/Y/Z) C:\Users\antoi\Documents\MyRepositories\mobilecap\ResultsAnalysis
DataRate	CameraRate	NumFrames	NumMarkers	Units	OrigDataRate	OrigDataStartFrame	OrigNumFrames
100.0	100.0	5	51	mm	100.0	34	132
Frame#	Time	r_knee			r_shank_antsup			r_ankle			r_calc			r_5meta			r_toe			L_knee			L_shank_antsup			L_ankle			L_calc			L_5meta			L_toe			r_sh2			r_sh3			r_sh4			L_sh2			L_sh3			r_thigh1			r_thigh2			r_thigh3			r_thigh4			r_thigh5			L_thigh1			L_thigh2			L_thigh3			L_thigh4			r.ASIS			r.PSIS			L.ASIS			L.PSIS			C7			R_Shoulder			L_Shoulder			R_Sternum			L_Sternum			R_humerus			R_elbow_med			R_elbow_lat			R_forearm			R_wrist_radius			R_wrist_ulna			L_humerus			L_elbow_med			L_elbow_lat			L_forearm			L_wrist_radius			L_wrist_ulna			R_HJC			L_HJC			R_HJC_reg			L_HJC_reg			
		X1	Y1	Z1	X2	Y2	Z2	X3	Y3	Z3	X4	Y4	Z4	X5	Y5	Z5	X6	Y6	Z6	X7	Y7	Z7	X8	Y8	Z8	X9	Y9	Z9	X10	Y10	Z10	X11	Y11	Z11	X12	Y12	Z12	X13	Y13	Z13	X14	Y14	Z14	X15	Y15	Z15	X16	Y16	Z16	X17	Y17	Z17	X18	Y18	Z18	X19	Y19	Z19	X20	Y20	Z20	X21	Y21	Z21	X22	Y22	Z22	X23	Y23	Z23	X24	Y24	Z24	X25	Y25	Z25	X26	Y26	Z26	X27	Y27	Z27	X28	Y28	Z28	X29	Y29	Z29	X30	Y30	Z30	X31	Y31	Z31	X32	Y32	Z32	X33	Y33	Z33	X34	Y34	Z34	X35	Y35	Z35	X36	Y36	Z36	X37	Y37	Z37	X38	Y38	Z38	X39	Y39	Z39	X40	Y40	Z40	X41	Y41	Z41	X42	Y42	Z42	X43	Y43	Z43	X44	Y44	Z44	X45	Y45	Z45	X46	Y46	Z46	X47	Y47	Z47	X48	Y48	Z48	X49	Y49	Z49	X50	Y50	Z50	X51	Y51	Z51	

34	0.33000000	233.25185	464.91662	-124.14689	260.63077	347.34967	-155.85457	164.93650	87.81315	-204.63322	115.99166	55.52168	-261.27960	274.01861	37.52978	-174.10735	313.67691	55.36194	-214.99152	407.92954	495.61542	-409.08693	402.50724	380.04947	-373.78865	172.07682	196.16261	-399.55290	116.57993	186.30594	-346.18058	237.76051	87.51311	-432.88979	285.92041	78.73572	-386.78438	243.84496	240.55007	-183.00516	207.51308	341.88128	-102.42991	172.65473	239.77564	-136.94679	368.13879	431.61957	-434.91916	292.53869	338.44364	-451.13159	323.58740	770.54177	-105.60942	330.81394	658.68806	-116.03994	286.02181	629.40688	-72.14766	222.87837	756.25155	-52.90682	231.29909	643.48284	-64.88000	341.46435	781.35434	-416.34754	418.58813	668.53236	-419.02861	247.05437	727.09826	-442.24722	325.54376	609.90946	-435.56612	326.97133	936.05088	-129.19607	141.16039	979.54313	-192.75961	326.57779	932.27788	-368.90597	137.42229	973.50351	-310.09573	162.87287	1428.54034	-235.37861	221.64321	1395.28237	-87.91149	217.67394	1407.19599	-397.41508	291.14590	1381.01927	-222.96106	291.65930	1379.87114	-266.52580	250.73491	1270.03996	-22.84103	191.73409	1066.11423	-66.01093	217.98034	1076.54685	3.82940	298.30258	978.17703	21.48715	359.00422	892.35807	21.94274	327.07642	875.58094	35.40212	231.95039	1258.91537	-466.01004	170.40876	1067.69595	-408.13665	174.81371	1079.87226	-480.39571	220.56892	994.72573	-514.47534	255.38163	867.98235	-516.94757	227.59588	862.22730	-531.30896	236.43689	864.60188	-149.95611	239.83919	856.88420	-339.14988	254.85304	872.34502	-157.00773	249.82058	864.21774	-314.94645	
35	0.34000000	236.70208	464.78634	-123.69332	262.95665	346.74725	-155.49180	165.07703	88.25971	-204.64199	116.18099	55.80883	-261.30528	274.06007	37.49796	-174.03530	313.81805	55.23659	-214.92674	426.45634	499.64780	-407.70087	426.57019	383.71291	-373.37185	207.33087	186.24631	-399.12721	152.38390	172.84278	-345.59513	279.62038	82.48212	-432.95705	328.62401	76.70436	-386.88496	245.35647	240.12674	-182.83311	209.72654	341.75115	-102.10452	174.10538	239.99807	-136.80236	388.79428	433.89707	-433.58973	318.48801	336.63336	-450.15285	332.49872	769.10476	-104.84192	337.72216	657.10816	-115.10017	292.22665	628.60215	-71.47058	230.91949	756.46147	-52.49446	237.71742	643.49147	-64.49494	355.05526	784.20090	-416.06282	434.30687	672.83597	-417.75536	261.56770	727.89444	-442.65163	342.25101	612.47769	-435.08853	337.41958	935.41042	-128.29922	152.07251	979.57958	-192.75672	338.18369	932.81447	-367.94195	148.77421	973.65845	-310.12065	174.53738	1428.71599	-234.61834	233.37398	1395.49058	-87.38793	229.08240	1407.16897	-396.85923	302.80443	1381.12040	-222.38410	303.33777	1379.98997	-265.96974	263.87341	1270.88173	-22.12553	207.55222	1065.90816	-64.08449	234.20167	1077.05127	5.54401	317.26795	980.99213	22.56022	380.79911	896.89128	22.56252	349.38076	879.29921	36.15659	240.68065	1258.63888	-465.62420	178.17727	1068.44698	-405.74639	180.88477	1080.39109	-478.18887	223.80489	994.38721	-513.40121	255.63837	866.95549	-516.78271	227.47471	861.60373	-530.28050	246.91736	864.21898	-149.84594	251.31175	857.25892	-339.04758	265.32143	872.47981	-156.44534	260.88387	864.51500	-314.35549	
36	0.35000000	240.11091	464.64932	-123.25061	265.29359	346.16843	-155.13994	165.10767	88.83811	-204.63366	116.35802	56.13875	-261.36461	274.09877	37.48837	-173.96517	313.94120	55.11940	-214.88499	444.12687	503.12220	-406.33662	449.94543	387.18194	-372.78610	243.36412	176.13201	-398.61538	189.15257	159.32522	-345.02341	322.14358	77.57118	-432.33296	371.82787	75.18928	-386.14351	246.83938	239.71084	-182.66648	211.90778	341.62031	-101.81907	175.51078	240.22834	-136.70016	408.92486	435.46153	-432.37111	344.52144	334.19495	-449.17208	341.29462	767.54599	-104.00309	344.60416	655.47908	-114.10062	298.39265	627.71824	-70.80008	238.92394	756.53385	-52.16438	244.03878	643.42605	-64.15430	368.53372	786.63361	-415.81015	449.43054	676.44273	-416.46938	275.76646	728.52047	-443.01196	358.27013	614.70333	-434.47944	347.82431	934.60767	-127.34964	162.97763	979.36479	-192.79778	349.79601	933.09496	-367.03844	160.15391	973.54373	-310.16794	186.20896	1428.72352	-233.85623	245.06913	1395.46907	-86.86093	240.62621	1406.96400	-396.30263	314.50811	1381.00608	-221.78399	315.07810	1379.90743	-265.38810	276.91981	1271.49526	-21.41814	223.39229	1065.50020	-62.28552	250.32982	1077.38045	7.16132	336.04232	983.62494	23.54981	402.22408	901.29888	23.07736	371.31293	882.91569	36.79678	249.60883	1258.24371	-465.21009	186.00923	1069.09171	-403.47499	187.05400	1080.88543	-476.11143	227.18525	994.06984	-512.31370	256.12675	866.05677	-516.56890	227.59023	861.09933	-529.18789	257.40259	863.63596	-149.73009	262.82127	857.37349	-338.92754	275.77172	872.35700	-155.85602	271.97294	864.52415	-313.81850	
37	0.36000000	243.50358	464.49996	-122.81057	267.61427	345.60468	-154.78122	165.05643	89.52412	-204.62564	116.53246	56.49954	-261.46703	274.12911	37.50139	-173.89657	314.04190	55.00913	-214.85955	460.94396	505.93542	-405.02125	472.61907	390.43628	-371.92685	280.11542	166.08104	-397.98044	226.79157	146.02356	-344.40490	365.21755	73.05300	-431.03093	415.28925	74.32586	-384.58637	248.28695	239.32233	-182.47901	214.05023	341.49466	-101.56079	176.86347	240.47210	-136.62809	428.65501	436.26483	-431.28356	370.77958	331.17207	-448.19448	350.00077	765.88450	-103.15024	351.49049	653.79796	-113.12375	304.57119	626.75804	-70.17367	246.94278	756.47338	-51.89869	250.32427	643.29019	-63.86488	381.84590	788.58517	-415.57597	463.93702	679.28979	-415.17988	289.63663	729.01532	-443.26904	373.59496	616.51501	-433.77268	358.21296	933.63785	-126.35575	173.89335	978.91202	-192.87417	361.43504	933.14444	-366.17227	171.57869	973.18388	-310.22155	197.91917	1428.54498	-233.14850	256.75902	1395.21766	-86.33457	252.29056	1406.58677	-395.74679	326.27043	1380.66572	-221.18086	326.87367	1379.60580	-264.80387	289.87932	1271.87091	-20.72515	239.21018	1064.90208	-60.59403	266.35401	1077.54451	8.68768	354.61784	986.06193	24.45135	423.25404	905.56944	23.47373	392.86919	886.40548	37.33359	258.76709	1257.73113	-464.76861	193.85486	1069.66593	-401.31495	193.38565	1081.35143	-474.15926	230.79400	993.77138	-511.20630	256.87463	865.23504	-516.28585	228.02396	860.74274	-528.02406	267.91121	862.85559	-149.60786	274.38271	857.25150	-338.79091	286.22443	871.99057	-155.25008	283.10936	864.27544	-313.32429	
38	0.37000000	246.91556	464.33436	-122.36933	269.90945	345.04515	-154.39961	164.98079	90.26104	-204.64053	116.71536	56.88322	-261.61098	274.14819	37.53046	-173.83256	314.12124	54.90301	-214.84271	476.94723	507.99921	-403.77886	494.58954	393.45336	-370.69202	317.48058	156.36048	-397.19921	265.15237	133.19946	-343.70786	408.69942	69.17767	-429.04947	458.73789	74.23942	-382.22755	249.70625	238.96949	-182.25191	216.15596	341.38128	-101.31622	178.16505	240.73732	-136.57244	448.13617	436.31262	-430.32995	397.37874	327.67054	-447.21784	358.64624	764.13068	-102.33125	358.41576	652.05852	-112.23130	310.79723	625.72058	-69.61922	255.03187	756.29558	-51.67708	256.64696	643.08920	-63.62657	394.93127	789.99100	-415.34180	477.83541	681.34068	-413.89241	303.18141	729.38436	-443.37008	388.23519	617.84206	-433.01999	368.63049	932.50537	-125.33942	184.84011	978.23818	-192.97718	373.12574	932.97952	-365.32427	183.06223	972.59960	-310.26972	209.68645	1428.18326	-232.53845	268.47331	1394.73869	-85.81339	264.06290	1406.03885	-395.19393	338.09577	1380.09076	-220.58842	338.71725	1379.07000	-264.23115	302.76125	1272.00239	-20.05426	254.95164	1064.13197	-58.98997	282.26311	1077.55571	10.12602	372.97364	988.29604	25.25955	443.85535	909.69302	23.74099	414.04557	889.74461	37.78007	268.18314	1257.09868	-464.30346	201.70538	1070.18506	-399.26096	199.95444	1081.76795	-472.32499	234.70467	993.48634	-510.08036	257.90376	864.44184	-515.91441	228.84701	860.55498	-526.78747	278.47379	861.88800	-149.47789	286.01333	856.91065	-338.63768	296.71617	871.40210	-154.64151	294.32196	863.79689	-312.85862	
